<?xml version="1.0" encoding="utf-8" standalone="no"?>
<!DOCTYPE svg PUBLIC "-//W3C//DTD SVG 1.1//EN"
  "http://www.w3.org/Graphics/SVG/1.1/DTD/svg11.dtd">
<svg xmlns:xlink="http://www.w3.org/1999/xlink" width="720pt" height="396pt" viewBox="0 0 720 396" xmlns="http://www.w3.org/2000/svg" version="1.1">
 <metadata>
  <rdf:RDF xmlns:dc="http://purl.org/dc/elements/1.1/" xmlns:cc="http://creativecommons.org/ns#" xmlns:rdf="http://www.w3.org/1999/02/22-rdf-syntax-ns#">
   <cc:Work>
    <dc:type rdf:resource="http://purl.org/dc/dcmitype/StillImage"/>
    <dc:date>2026-08-26T04:11:21.442416</dc:date>
    <dc:format>image/svg+xml</dc:format>
    <dc:creator>
     <cc:Agent>
      <dc:title>Matplotlib v3.11.1, https://matplotlib.org/</dc:title>
     </cc:Agent>
    </dc:creator>
   </cc:Work>
  </rdf:RDF>
 </metadata>
 <defs>
  <style type="text/css">*{stroke-linejoin: round; stroke-linecap: butt}</style>
 </defs>
 <g id="figure_1">
  <g id="patch_1">
   <path d="M 0 396 
L 720 396 
L 720 0 
L 0 0 
z
" style="fill: #ffffff"/>
  </g>
  <g id="axes_1">
   <g id="patch_2">
    <path d="M 47.962344 354.035312 
L 699.48 354.035312 
L 699.48 10.8 
L 47.962344 10.8 
z
" style="fill: #ffffff"/>
   </g>
   <g id="matplotlib.axis_1">
    <g id="xtick_1">
     <g id="line2d_1">
      <path d="M 47.962344 354.035312 
L 47.962344 10.8 
" clip-path="url(#p5d87160852)" style="fill: none; stroke: #b0b0b0; stroke-opacity: 0.25; stroke-width: 0.8; stroke-linecap: square"/>
     </g>
     <g id="line2d_2">
      <defs>
       <path id="mf06d832fd9" d="M 0 0 
L 0 3.5 
" style="stroke: #000000; stroke-width: 0.8"/>
      </defs>
      <g>
       <use xlink:href="#mf06d832fd9" x="47.962344" y="354.035312" style="stroke: #000000; stroke-width: 0.8"/>
      </g>
     </g>
     <g id="text_1">
      <!-- 0 -->
      <g transform="translate(44.781094 368.632969) scale(0.1 -0.1)">
       <defs>
        <path id="DejaVuSans-13" d="M 2034 4250 
Q 1547 4250 1301 3770 
Q 1056 3291 1056 2328 
Q 1056 1369 1301 889 
Q 1547 409 2034 409 
Q 2525 409 2770 889 
Q 3016 1369 3016 2328 
Q 3016 3291 2770 3770 
Q 2525 4250 2034 4250 
z
M 2034 4750 
Q 2819 4750 3233 4129 
Q 3647 3509 3647 2328 
Q 3647 1150 3233 529 
Q 2819 -91 2034 -91 
Q 1250 -91 836 529 
Q 422 1150 422 2328 
Q 422 3509 836 4129 
Q 1250 4750 2034 4750 
z
" transform="scale(0.015625)"/>
       </defs>
       <use xlink:href="#DejaVuSans-13"/>
      </g>
     </g>
    </g>
    <g id="xtick_2">
     <g id="line2d_3">
      <path d="M 156.54862 354.035312 
L 156.54862 10.8 
" clip-path="url(#p5d87160852)" style="fill: none; stroke: #b0b0b0; stroke-opacity: 0.25; stroke-width: 0.8; stroke-linecap: square"/>
     </g>
     <g id="line2d_4">
      <g>
       <use xlink:href="#mf06d832fd9" x="156.54862" y="354.035312" style="stroke: #000000; stroke-width: 0.8"/>
      </g>
     </g>
     <g id="text_2">
      <!-- 20 -->
      <g transform="translate(150.18612 368.632969) scale(0.1 -0.1)">
       <defs>
        <path id="DejaVuSans-15" d="M 1228 531 
L 3431 531 
L 3431 0 
L 469 0 
L 469 531 
Q 828 903 1448 1529 
Q 2069 2156 2228 2338 
Q 2531 2678 2651 2914 
Q 2772 3150 2772 3378 
Q 2772 3750 2511 3984 
Q 2250 4219 1831 4219 
Q 1534 4219 1204 4116 
Q 875 4013 500 3803 
L 500 4441 
Q 881 4594 1212 4672 
Q 1544 4750 1819 4750 
Q 2544 4750 2975 4387 
Q 3406 4025 3406 3419 
Q 3406 3131 3298 2873 
Q 3191 2616 2906 2266 
Q 2828 2175 2409 1742 
Q 1991 1309 1228 531 
z
" transform="scale(0.015625)"/>
       </defs>
       <use xlink:href="#DejaVuSans-15"/>
       <use xlink:href="#DejaVuSans-13" transform="translate(63.625 0)"/>
      </g>
     </g>
    </g>
    <g id="xtick_3">
     <g id="line2d_5">
      <path d="M 265.134896 354.035312 
L 265.134896 10.8 
" clip-path="url(#p5d87160852)" style="fill: none; stroke: #b0b0b0; stroke-opacity: 0.25; stroke-width: 0.8; stroke-linecap: square"/>
     </g>
     <g id="line2d_6">
      <g>
       <use xlink:href="#mf06d832fd9" x="265.134896" y="354.035312" style="stroke: #000000; stroke-width: 0.8"/>
      </g>
     </g>
     <g id="text_3">
      <!-- 40 -->
      <g transform="translate(258.772396 368.632969) scale(0.1 -0.1)">
       <defs>
        <path id="DejaVuSans-17" d="M 2419 4116 
L 825 1625 
L 2419 1625 
L 2419 4116 
z
M 2253 4666 
L 3047 4666 
L 3047 1625 
L 3713 1625 
L 3713 1100 
L 3047 1100 
L 3047 0 
L 2419 0 
L 2419 1100 
L 313 1100 
L 313 1709 
L 2253 4666 
z
" transform="scale(0.015625)"/>
       </defs>
       <use xlink:href="#DejaVuSans-17"/>
       <use xlink:href="#DejaVuSans-13" transform="translate(63.625 0)"/>
      </g>
     </g>
    </g>
    <g id="xtick_4">
     <g id="line2d_7">
      <path d="M 373.721172 354.035312 
L 373.721172 10.8 
" clip-path="url(#p5d87160852)" style="fill: none; stroke: #b0b0b0; stroke-opacity: 0.25; stroke-width: 0.8; stroke-linecap: square"/>
     </g>
     <g id="line2d_8">
      <g>
       <use xlink:href="#mf06d832fd9" x="373.721172" y="354.035312" style="stroke: #000000; stroke-width: 0.8"/>
      </g>
     </g>
     <g id="text_4">
      <!-- 60 -->
      <g transform="translate(367.358672 368.632969) scale(0.1 -0.1)">
       <defs>
        <path id="DejaVuSans-19" d="M 2113 2584 
Q 1688 2584 1439 2293 
Q 1191 2003 1191 1497 
Q 1191 994 1439 701 
Q 1688 409 2113 409 
Q 2538 409 2786 701 
Q 3034 994 3034 1497 
Q 3034 2003 2786 2293 
Q 2538 2584 2113 2584 
z
M 3366 4563 
L 3366 3988 
Q 3128 4100 2886 4159 
Q 2644 4219 2406 4219 
Q 1781 4219 1451 3797 
Q 1122 3375 1075 2522 
Q 1259 2794 1537 2939 
Q 1816 3084 2150 3084 
Q 2853 3084 3261 2657 
Q 3669 2231 3669 1497 
Q 3669 778 3244 343 
Q 2819 -91 2113 -91 
Q 1303 -91 875 529 
Q 447 1150 447 2328 
Q 447 3434 972 4092 
Q 1497 4750 2381 4750 
Q 2619 4750 2861 4703 
Q 3103 4656 3366 4563 
z
" transform="scale(0.015625)"/>
       </defs>
       <use xlink:href="#DejaVuSans-19"/>
       <use xlink:href="#DejaVuSans-13" transform="translate(63.625 0)"/>
      </g>
     </g>
    </g>
    <g id="xtick_5">
     <g id="line2d_9">
      <path d="M 482.307448 354.035312 
L 482.307448 10.8 
" clip-path="url(#p5d87160852)" style="fill: none; stroke: #b0b0b0; stroke-opacity: 0.25; stroke-width: 0.8; stroke-linecap: square"/>
     </g>
     <g id="line2d_10">
      <g>
       <use xlink:href="#mf06d832fd9" x="482.307448" y="354.035312" style="stroke: #000000; stroke-width: 0.8"/>
      </g>
     </g>
     <g id="text_5">
      <!-- 80 -->
      <g transform="translate(475.944948 368.632969) scale(0.1 -0.1)">
       <defs>
        <path id="DejaVuSans-1b" d="M 2034 2216 
Q 1584 2216 1326 1975 
Q 1069 1734 1069 1313 
Q 1069 891 1326 650 
Q 1584 409 2034 409 
Q 2484 409 2743 651 
Q 3003 894 3003 1313 
Q 3003 1734 2745 1975 
Q 2488 2216 2034 2216 
z
M 1403 2484 
Q 997 2584 770 2862 
Q 544 3141 544 3541 
Q 544 4100 942 4425 
Q 1341 4750 2034 4750 
Q 2731 4750 3128 4425 
Q 3525 4100 3525 3541 
Q 3525 3141 3298 2862 
Q 3072 2584 2669 2484 
Q 3125 2378 3379 2068 
Q 3634 1759 3634 1313 
Q 3634 634 3220 271 
Q 2806 -91 2034 -91 
Q 1263 -91 848 271 
Q 434 634 434 1313 
Q 434 1759 690 2068 
Q 947 2378 1403 2484 
z
M 1172 3481 
Q 1172 3119 1398 2916 
Q 1625 2713 2034 2713 
Q 2441 2713 2670 2916 
Q 2900 3119 2900 3481 
Q 2900 3844 2670 4047 
Q 2441 4250 2034 4250 
Q 1625 4250 1398 4047 
Q 1172 3844 1172 3481 
z
" transform="scale(0.015625)"/>
       </defs>
       <use xlink:href="#DejaVuSans-1b"/>
       <use xlink:href="#DejaVuSans-13" transform="translate(63.625 0)"/>
      </g>
     </g>
    </g>
    <g id="xtick_6">
     <g id="line2d_11">
      <path d="M 590.893724 354.035312 
L 590.893724 10.8 
" clip-path="url(#p5d87160852)" style="fill: none; stroke: #b0b0b0; stroke-opacity: 0.25; stroke-width: 0.8; stroke-linecap: square"/>
     </g>
     <g id="line2d_12">
      <g>
       <use xlink:href="#mf06d832fd9" x="590.893724" y="354.035312" style="stroke: #000000; stroke-width: 0.8"/>
      </g>
     </g>
     <g id="text_6">
      <!-- 100 -->
      <g transform="translate(581.349974 368.632969) scale(0.1 -0.1)">
       <defs>
        <path id="DejaVuSans-14" d="M 794 531 
L 1825 531 
L 1825 4091 
L 703 3866 
L 703 4441 
L 1819 4666 
L 2450 4666 
L 2450 531 
L 3481 531 
L 3481 0 
L 794 0 
L 794 531 
z
" transform="scale(0.015625)"/>
       </defs>
       <use xlink:href="#DejaVuSans-14"/>
       <use xlink:href="#DejaVuSans-13" transform="translate(63.625 0)"/>
       <use xlink:href="#DejaVuSans-13" transform="translate(127.25 0)"/>
      </g>
     </g>
    </g>
    <g id="xtick_7">
     <g id="line2d_13">
      <path d="M 699.48 354.035312 
L 699.48 10.8 
" clip-path="url(#p5d87160852)" style="fill: none; stroke: #b0b0b0; stroke-opacity: 0.25; stroke-width: 0.8; stroke-linecap: square"/>
     </g>
     <g id="line2d_14">
      <g>
       <use xlink:href="#mf06d832fd9" x="699.48" y="354.035312" style="stroke: #000000; stroke-width: 0.8"/>
      </g>
     </g>
     <g id="text_7">
      <!-- 120 -->
      <g transform="translate(689.93625 368.632969) scale(0.1 -0.1)">
       <use xlink:href="#DejaVuSans-14"/>
       <use xlink:href="#DejaVuSans-15" transform="translate(63.625 0)"/>
       <use xlink:href="#DejaVuSans-13" transform="translate(127.25 0)"/>
      </g>
     </g>
    </g>
    <g id="text_8">
     <!-- Hearing threshold (dB HL) -->
     <g transform="translate(308.666484 382.63375) scale(0.1 -0.1)">
      <defs>
       <path id="DejaVuSans-2b" d="M 628 4666 
L 1259 4666 
L 1259 2753 
L 3553 2753 
L 3553 4666 
L 4184 4666 
L 4184 0 
L 3553 0 
L 3553 2222 
L 1259 2222 
L 1259 0 
L 628 0 
L 628 4666 
z
" transform="scale(0.015625)"/>
       <path id="DejaVuSans-48" d="M 3597 1894 
L 3597 1613 
L 953 1613 
Q 991 1019 1311 708 
Q 1631 397 2203 397 
Q 2534 397 2845 478 
Q 3156 559 3463 722 
L 3463 178 
Q 3153 47 2828 -22 
Q 2503 -91 2169 -91 
Q 1331 -91 842 396 
Q 353 884 353 1716 
Q 353 2575 817 3079 
Q 1281 3584 2069 3584 
Q 2775 3584 3186 3129 
Q 3597 2675 3597 1894 
z
M 3022 2063 
Q 3016 2534 2758 2815 
Q 2500 3097 2075 3097 
Q 1594 3097 1305 2825 
Q 1016 2553 972 2059 
L 3022 2063 
z
" transform="scale(0.015625)"/>
       <path id="DejaVuSans-44" d="M 2194 1759 
Q 1497 1759 1228 1600 
Q 959 1441 959 1056 
Q 959 750 1161 570 
Q 1363 391 1709 391 
Q 2188 391 2477 730 
Q 2766 1069 2766 1631 
L 2766 1759 
L 2194 1759 
z
M 3341 1997 
L 3341 0 
L 2766 0 
L 2766 531 
Q 2569 213 2275 61 
Q 1981 -91 1556 -91 
Q 1019 -91 701 211 
Q 384 513 384 1019 
Q 384 1609 779 1909 
Q 1175 2209 1959 2209 
L 2766 2209 
L 2766 2266 
Q 2766 2663 2505 2880 
Q 2244 3097 1772 3097 
Q 1472 3097 1187 3025 
Q 903 2953 641 2809 
L 641 3341 
Q 956 3463 1253 3523 
Q 1550 3584 1831 3584 
Q 2591 3584 2966 3190 
Q 3341 2797 3341 1997 
z
" transform="scale(0.015625)"/>
       <path id="DejaVuSans-55" d="M 2631 2963 
Q 2534 3019 2420 3045 
Q 2306 3072 2169 3072 
Q 1681 3072 1420 2755 
Q 1159 2438 1159 1844 
L 1159 0 
L 581 0 
L 581 3500 
L 1159 3500 
L 1159 2956 
Q 1341 3275 1631 3429 
Q 1922 3584 2338 3584 
Q 2397 3584 2469 3576 
Q 2541 3569 2628 3553 
L 2631 2963 
z
" transform="scale(0.015625)"/>
       <path id="DejaVuSans-4c" d="M 603 3500 
L 1178 3500 
L 1178 0 
L 603 0 
L 603 3500 
z
M 603 4863 
L 1178 4863 
L 1178 4134 
L 603 4134 
L 603 4863 
z
" transform="scale(0.015625)"/>
       <path id="DejaVuSans-51" d="M 3513 2113 
L 3513 0 
L 2938 0 
L 2938 2094 
Q 2938 2591 2744 2837 
Q 2550 3084 2163 3084 
Q 1697 3084 1428 2787 
Q 1159 2491 1159 1978 
L 1159 0 
L 581 0 
L 581 3500 
L 1159 3500 
L 1159 2956 
Q 1366 3272 1645 3428 
Q 1925 3584 2291 3584 
Q 2894 3584 3203 3211 
Q 3513 2838 3513 2113 
z
" transform="scale(0.015625)"/>
       <path id="DejaVuSans-4a" d="M 2906 1791 
Q 2906 2416 2648 2759 
Q 2391 3103 1925 3103 
Q 1463 3103 1205 2759 
Q 947 2416 947 1791 
Q 947 1169 1205 825 
Q 1463 481 1925 481 
Q 2391 481 2648 825 
Q 2906 1169 2906 1791 
z
M 3481 434 
Q 3481 -459 3084 -895 
Q 2688 -1331 1869 -1331 
Q 1566 -1331 1297 -1286 
Q 1028 -1241 775 -1147 
L 775 -588 
Q 1028 -725 1275 -790 
Q 1522 -856 1778 -856 
Q 2344 -856 2625 -561 
Q 2906 -266 2906 331 
L 2906 616 
Q 2728 306 2450 153 
Q 2172 0 1784 0 
Q 1141 0 747 490 
Q 353 981 353 1791 
Q 353 2603 747 3093 
Q 1141 3584 1784 3584 
Q 2172 3584 2450 3431 
Q 2728 3278 2906 2969 
L 2906 3500 
L 3481 3500 
L 3481 434 
z
" transform="scale(0.015625)"/>
       <path id="DejaVuSans-3" transform="scale(0.015625)"/>
       <path id="DejaVuSans-57" d="M 1172 4494 
L 1172 3500 
L 2356 3500 
L 2356 3053 
L 1172 3053 
L 1172 1153 
Q 1172 725 1289 603 
Q 1406 481 1766 481 
L 2356 481 
L 2356 0 
L 1766 0 
Q 1100 0 847 248 
Q 594 497 594 1153 
L 594 3053 
L 172 3053 
L 172 3500 
L 594 3500 
L 594 4494 
L 1172 4494 
z
" transform="scale(0.015625)"/>
       <path id="DejaVuSans-4b" d="M 3513 2113 
L 3513 0 
L 2938 0 
L 2938 2094 
Q 2938 2591 2744 2837 
Q 2550 3084 2163 3084 
Q 1697 3084 1428 2787 
Q 1159 2491 1159 1978 
L 1159 0 
L 581 0 
L 581 4863 
L 1159 4863 
L 1159 2956 
Q 1366 3272 1645 3428 
Q 1925 3584 2291 3584 
Q 2894 3584 3203 3211 
Q 3513 2838 3513 2113 
z
" transform="scale(0.015625)"/>
       <path id="DejaVuSans-56" d="M 2834 3397 
L 2834 2853 
Q 2591 2978 2328 3040 
Q 2066 3103 1784 3103 
Q 1356 3103 1142 2972 
Q 928 2841 928 2578 
Q 928 2378 1081 2264 
Q 1234 2150 1697 2047 
L 1894 2003 
Q 2506 1872 2764 1633 
Q 3022 1394 3022 966 
Q 3022 478 2636 193 
Q 2250 -91 1575 -91 
Q 1294 -91 989 -36 
Q 684 19 347 128 
L 347 722 
Q 666 556 975 473 
Q 1284 391 1588 391 
Q 1994 391 2212 530 
Q 2431 669 2431 922 
Q 2431 1156 2273 1281 
Q 2116 1406 1581 1522 
L 1381 1569 
Q 847 1681 609 1914 
Q 372 2147 372 2553 
Q 372 3047 722 3315 
Q 1072 3584 1716 3584 
Q 2034 3584 2315 3537 
Q 2597 3491 2834 3397 
z
" transform="scale(0.015625)"/>
       <path id="DejaVuSans-52" d="M 1959 3097 
Q 1497 3097 1228 2736 
Q 959 2375 959 1747 
Q 959 1119 1226 758 
Q 1494 397 1959 397 
Q 2419 397 2687 759 
Q 2956 1122 2956 1747 
Q 2956 2369 2687 2733 
Q 2419 3097 1959 3097 
z
M 1959 3584 
Q 2709 3584 3137 3096 
Q 3566 2609 3566 1747 
Q 3566 888 3137 398 
Q 2709 -91 1959 -91 
Q 1206 -91 779 398 
Q 353 888 353 1747 
Q 353 2609 779 3096 
Q 1206 3584 1959 3584 
z
" transform="scale(0.015625)"/>
       <path id="DejaVuSans-4f" d="M 603 4863 
L 1178 4863 
L 1178 0 
L 603 0 
L 603 4863 
z
" transform="scale(0.015625)"/>
       <path id="DejaVuSans-47" d="M 2906 2969 
L 2906 4863 
L 3481 4863 
L 3481 0 
L 2906 0 
L 2906 525 
Q 2725 213 2448 61 
Q 2172 -91 1784 -91 
Q 1150 -91 751 415 
Q 353 922 353 1747 
Q 353 2572 751 3078 
Q 1150 3584 1784 3584 
Q 2172 3584 2448 3432 
Q 2725 3281 2906 2969 
z
M 947 1747 
Q 947 1113 1208 752 
Q 1469 391 1925 391 
Q 2381 391 2643 752 
Q 2906 1113 2906 1747 
Q 2906 2381 2643 2742 
Q 2381 3103 1925 3103 
Q 1469 3103 1208 2742 
Q 947 2381 947 1747 
z
" transform="scale(0.015625)"/>
       <path id="DejaVuSans-b" d="M 1984 4856 
Q 1566 4138 1362 3434 
Q 1159 2731 1159 2009 
Q 1159 1288 1364 580 
Q 1569 -128 1984 -844 
L 1484 -844 
Q 1016 -109 783 600 
Q 550 1309 550 2009 
Q 550 2706 781 3412 
Q 1013 4119 1484 4856 
L 1984 4856 
z
" transform="scale(0.015625)"/>
       <path id="DejaVuSans-25" d="M 1259 2228 
L 1259 519 
L 2272 519 
Q 2781 519 3026 730 
Q 3272 941 3272 1375 
Q 3272 1813 3026 2020 
Q 2781 2228 2272 2228 
L 1259 2228 
z
M 1259 4147 
L 1259 2741 
L 2194 2741 
Q 2656 2741 2882 2914 
Q 3109 3088 3109 3444 
Q 3109 3797 2882 3972 
Q 2656 4147 2194 4147 
L 1259 4147 
z
M 628 4666 
L 2241 4666 
Q 2963 4666 3353 4366 
Q 3744 4066 3744 3513 
Q 3744 3084 3544 2831 
Q 3344 2578 2956 2516 
Q 3422 2416 3680 2098 
Q 3938 1781 3938 1306 
Q 3938 681 3513 340 
Q 3088 0 2303 0 
L 628 0 
L 628 4666 
z
" transform="scale(0.015625)"/>
       <path id="DejaVuSans-2f" d="M 628 4666 
L 1259 4666 
L 1259 531 
L 3531 531 
L 3531 0 
L 628 0 
L 628 4666 
z
" transform="scale(0.015625)"/>
       <path id="DejaVuSans-c" d="M 513 4856 
L 1013 4856 
Q 1481 4119 1714 3412 
Q 1947 2706 1947 2009 
Q 1947 1309 1714 600 
Q 1481 -109 1013 -844 
L 513 -844 
Q 928 -128 1133 580 
Q 1338 1288 1338 2009 
Q 1338 2731 1133 3434 
Q 928 4138 513 4856 
z
" transform="scale(0.015625)"/>
      </defs>
      <use xlink:href="#DejaVuSans-2b"/>
      <use xlink:href="#DejaVuSans-48" transform="translate(75.203125 0)"/>
      <use xlink:href="#DejaVuSans-44" transform="translate(136.734375 0)"/>
      <use xlink:href="#DejaVuSans-55" transform="translate(198.015625 0)"/>
      <use xlink:href="#DejaVuSans-4c" transform="translate(239.125 0)"/>
      <use xlink:href="#DejaVuSans-51" transform="translate(266.90625 0)"/>
      <use xlink:href="#DejaVuSans-4a" transform="translate(330.28125 0)"/>
      <use xlink:href="#DejaVuSans-3" transform="translate(393.765625 0)"/>
      <use xlink:href="#DejaVuSans-57" transform="translate(425.546875 0)"/>
      <use xlink:href="#DejaVuSans-4b" transform="translate(464.75 0)"/>
      <use xlink:href="#DejaVuSans-55" transform="translate(528.125 0)"/>
      <use xlink:href="#DejaVuSans-48" transform="translate(567.03125 0)"/>
      <use xlink:href="#DejaVuSans-56" transform="translate(628.5625 0)"/>
      <use xlink:href="#DejaVuSans-4b" transform="translate(680.65625 0)"/>
      <use xlink:href="#DejaVuSans-52" transform="translate(744.03125 0)"/>
      <use xlink:href="#DejaVuSans-4f" transform="translate(805.21875 0)"/>
      <use xlink:href="#DejaVuSans-47" transform="translate(833 0)"/>
      <use xlink:href="#DejaVuSans-3" transform="translate(896.484375 0)"/>
      <use xlink:href="#DejaVuSans-b" transform="translate(928.265625 0)"/>
      <use xlink:href="#DejaVuSans-47" transform="translate(967.28125 0)"/>
      <use xlink:href="#DejaVuSans-25" transform="translate(1030.765625 0)"/>
      <use xlink:href="#DejaVuSans-3" transform="translate(1099.375 0)"/>
      <use xlink:href="#DejaVuSans-2b" transform="translate(1131.15625 0)"/>
      <use xlink:href="#DejaVuSans-2f" transform="translate(1206.359375 0)"/>
      <use xlink:href="#DejaVuSans-c" transform="translate(1262.078125 0)"/>
     </g>
    </g>
   </g>
   <g id="matplotlib.axis_2">
    <g id="ytick_1">
     <g id="line2d_15">
      <path d="M 47.962344 354.035312 
L 699.48 354.035312 
" clip-path="url(#p5d87160852)" style="fill: none; stroke: #b0b0b0; stroke-opacity: 0.25; stroke-width: 0.8; stroke-linecap: square"/>
     </g>
     <g id="line2d_16">
      <defs>
       <path id="m380a34c13e" d="M 0 0 
L -3.5 0 
" style="stroke: #000000; stroke-width: 0.8"/>
      </defs>
      <g>
       <use xlink:href="#m380a34c13e" x="47.962344" y="354.035312" style="stroke: #000000; stroke-width: 0.8"/>
      </g>
     </g>
     <g id="text_9">
      <!-- 0.0 -->
      <g transform="translate(25.059219 357.834141) scale(0.1 -0.1)">
       <defs>
        <path id="DejaVuSans-11" d="M 684 794 
L 1344 794 
L 1344 0 
L 684 0 
L 684 794 
z
" transform="scale(0.015625)"/>
       </defs>
       <use xlink:href="#DejaVuSans-13"/>
       <use xlink:href="#DejaVuSans-11" transform="translate(63.625 0)"/>
       <use xlink:href="#DejaVuSans-13" transform="translate(95.40625 0)"/>
      </g>
     </g>
    </g>
    <g id="ytick_2">
     <g id="line2d_17">
      <path d="M 47.962344 292.743292 
L 699.48 292.743292 
" clip-path="url(#p5d87160852)" style="fill: none; stroke: #b0b0b0; stroke-opacity: 0.25; stroke-width: 0.8; stroke-linecap: square"/>
     </g>
     <g id="line2d_18">
      <g>
       <use xlink:href="#m380a34c13e" x="47.962344" y="292.743292" style="stroke: #000000; stroke-width: 0.8"/>
      </g>
     </g>
     <g id="text_10">
      <!-- 0.2 -->
      <g transform="translate(25.059219 296.542121) scale(0.1 -0.1)">
       <use xlink:href="#DejaVuSans-13"/>
       <use xlink:href="#DejaVuSans-11" transform="translate(63.625 0)"/>
       <use xlink:href="#DejaVuSans-15" transform="translate(95.40625 0)"/>
      </g>
     </g>
    </g>
    <g id="ytick_3">
     <g id="line2d_19">
      <path d="M 47.962344 231.451272 
L 699.48 231.451272 
" clip-path="url(#p5d87160852)" style="fill: none; stroke: #b0b0b0; stroke-opacity: 0.25; stroke-width: 0.8; stroke-linecap: square"/>
     </g>
     <g id="line2d_20">
      <g>
       <use xlink:href="#m380a34c13e" x="47.962344" y="231.451272" style="stroke: #000000; stroke-width: 0.8"/>
      </g>
     </g>
     <g id="text_11">
      <!-- 0.4 -->
      <g transform="translate(25.059219 235.2501) scale(0.1 -0.1)">
       <use xlink:href="#DejaVuSans-13"/>
       <use xlink:href="#DejaVuSans-11" transform="translate(63.625 0)"/>
       <use xlink:href="#DejaVuSans-17" transform="translate(95.40625 0)"/>
      </g>
     </g>
    </g>
    <g id="ytick_4">
     <g id="line2d_21">
      <path d="M 47.962344 170.159252 
L 699.48 170.159252 
" clip-path="url(#p5d87160852)" style="fill: none; stroke: #b0b0b0; stroke-opacity: 0.25; stroke-width: 0.8; stroke-linecap: square"/>
     </g>
     <g id="line2d_22">
      <g>
       <use xlink:href="#m380a34c13e" x="47.962344" y="170.159252" style="stroke: #000000; stroke-width: 0.8"/>
      </g>
     </g>
     <g id="text_12">
      <!-- 0.6 -->
      <g transform="translate(25.059219 173.95808) scale(0.1 -0.1)">
       <use xlink:href="#DejaVuSans-13"/>
       <use xlink:href="#DejaVuSans-11" transform="translate(63.625 0)"/>
       <use xlink:href="#DejaVuSans-19" transform="translate(95.40625 0)"/>
      </g>
     </g>
    </g>
    <g id="ytick_5">
     <g id="line2d_23">
      <path d="M 47.962344 108.867232 
L 699.48 108.867232 
" clip-path="url(#p5d87160852)" style="fill: none; stroke: #b0b0b0; stroke-opacity: 0.25; stroke-width: 0.8; stroke-linecap: square"/>
     </g>
     <g id="line2d_24">
      <g>
       <use xlink:href="#m380a34c13e" x="47.962344" y="108.867232" style="stroke: #000000; stroke-width: 0.8"/>
      </g>
     </g>
     <g id="text_13">
      <!-- 0.8 -->
      <g transform="translate(25.059219 112.66606) scale(0.1 -0.1)">
       <use xlink:href="#DejaVuSans-13"/>
       <use xlink:href="#DejaVuSans-11" transform="translate(63.625 0)"/>
       <use xlink:href="#DejaVuSans-1b" transform="translate(95.40625 0)"/>
      </g>
     </g>
    </g>
    <g id="ytick_6">
     <g id="line2d_25">
      <path d="M 47.962344 47.575212 
L 699.48 47.575212 
" clip-path="url(#p5d87160852)" style="fill: none; stroke: #b0b0b0; stroke-opacity: 0.25; stroke-width: 0.8; stroke-linecap: square"/>
     </g>
     <g id="line2d_26">
      <g>
       <use xlink:href="#m380a34c13e" x="47.962344" y="47.575212" style="stroke: #000000; stroke-width: 0.8"/>
      </g>
     </g>
     <g id="text_14">
      <!-- 1.0 -->
      <g transform="translate(25.059219 51.37404) scale(0.1 -0.1)">
       <use xlink:href="#DejaVuSans-14"/>
       <use xlink:href="#DejaVuSans-11" transform="translate(63.625 0)"/>
       <use xlink:href="#DejaVuSans-13" transform="translate(95.40625 0)"/>
      </g>
     </g>
    </g>
    <g id="text_15">
     <!-- Membership degree -->
     <g transform="translate(18.656875 232.434062) rotate(-90) scale(0.1 -0.1)">
      <defs>
       <path id="DejaVuSans-30" d="M 628 4666 
L 1569 4666 
L 2759 1491 
L 3956 4666 
L 4897 4666 
L 4897 0 
L 4281 0 
L 4281 4097 
L 3078 897 
L 2444 897 
L 1241 4097 
L 1241 0 
L 628 0 
L 628 4666 
z
" transform="scale(0.015625)"/>
       <path id="DejaVuSans-50" d="M 3328 2828 
Q 3544 3216 3844 3400 
Q 4144 3584 4550 3584 
Q 5097 3584 5394 3201 
Q 5691 2819 5691 2113 
L 5691 0 
L 5113 0 
L 5113 2094 
Q 5113 2597 4934 2840 
Q 4756 3084 4391 3084 
Q 3944 3084 3684 2787 
Q 3425 2491 3425 1978 
L 3425 0 
L 2847 0 
L 2847 2094 
Q 2847 2600 2669 2842 
Q 2491 3084 2119 3084 
Q 1678 3084 1418 2786 
Q 1159 2488 1159 1978 
L 1159 0 
L 581 0 
L 581 3500 
L 1159 3500 
L 1159 2956 
Q 1356 3278 1631 3431 
Q 1906 3584 2284 3584 
Q 2666 3584 2933 3390 
Q 3200 3197 3328 2828 
z
" transform="scale(0.015625)"/>
       <path id="DejaVuSans-45" d="M 3116 1747 
Q 3116 2381 2855 2742 
Q 2594 3103 2138 3103 
Q 1681 3103 1420 2742 
Q 1159 2381 1159 1747 
Q 1159 1113 1420 752 
Q 1681 391 2138 391 
Q 2594 391 2855 752 
Q 3116 1113 3116 1747 
z
M 1159 2969 
Q 1341 3281 1617 3432 
Q 1894 3584 2278 3584 
Q 2916 3584 3314 3078 
Q 3713 2572 3713 1747 
Q 3713 922 3314 415 
Q 2916 -91 2278 -91 
Q 1894 -91 1617 61 
Q 1341 213 1159 525 
L 1159 0 
L 581 0 
L 581 4863 
L 1159 4863 
L 1159 2969 
z
" transform="scale(0.015625)"/>
       <path id="DejaVuSans-53" d="M 1159 525 
L 1159 -1331 
L 581 -1331 
L 581 3500 
L 1159 3500 
L 1159 2969 
Q 1341 3281 1617 3432 
Q 1894 3584 2278 3584 
Q 2916 3584 3314 3078 
Q 3713 2572 3713 1747 
Q 3713 922 3314 415 
Q 2916 -91 2278 -91 
Q 1894 -91 1617 61 
Q 1341 213 1159 525 
z
M 3116 1747 
Q 3116 2381 2855 2742 
Q 2594 3103 2138 3103 
Q 1681 3103 1420 2742 
Q 1159 2381 1159 1747 
Q 1159 1113 1420 752 
Q 1681 391 2138 391 
Q 2594 391 2855 752 
Q 3116 1113 3116 1747 
z
" transform="scale(0.015625)"/>
      </defs>
      <use xlink:href="#DejaVuSans-30"/>
      <use xlink:href="#DejaVuSans-48" transform="translate(86.28125 0)"/>
      <use xlink:href="#DejaVuSans-50" transform="translate(147.8125 0)"/>
      <use xlink:href="#DejaVuSans-45" transform="translate(245.21875 0)"/>
      <use xlink:href="#DejaVuSans-48" transform="translate(308.703125 0)"/>
      <use xlink:href="#DejaVuSans-55" transform="translate(370.234375 0)"/>
      <use xlink:href="#DejaVuSans-56" transform="translate(411.34375 0)"/>
      <use xlink:href="#DejaVuSans-4b" transform="translate(463.4375 0)"/>
      <use xlink:href="#DejaVuSans-4c" transform="translate(526.8125 0)"/>
      <use xlink:href="#DejaVuSans-53" transform="translate(554.59375 0)"/>
      <use xlink:href="#DejaVuSans-3" transform="translate(618.078125 0)"/>
      <use xlink:href="#DejaVuSans-47" transform="translate(649.859375 0)"/>
      <use xlink:href="#DejaVuSans-48" transform="translate(713.34375 0)"/>
      <use xlink:href="#DejaVuSans-4a" transform="translate(774.875 0)"/>
      <use xlink:href="#DejaVuSans-55" transform="translate(838.359375 0)"/>
      <use xlink:href="#DejaVuSans-48" transform="translate(877.265625 0)"/>
      <use xlink:href="#DejaVuSans-48" transform="translate(938.796875 0)"/>
     </g>
    </g>
   </g>
   <g id="line2d_27">
    <path d="M 47.962344 47.575212 
L 53.391658 47.575212 
L 58.820971 47.575212 
L 64.250285 47.575212 
L 69.679599 47.575212 
L 75.108913 47.575212 
L 80.538227 47.575212 
L 85.96754 47.575212 
L 91.396854 47.575212 
L 96.826168 47.575212 
L 102.255482 47.575212 
L 107.684796 47.575212 
L 113.114109 47.575212 
L 118.543423 47.575212 
L 123.972737 47.575212 
L 129.402051 70.892828 
L 134.831365 104.203709 
L 140.260678 137.514589 
L 145.689992 170.82547 
L 151.119306 204.13635 
L 156.54862 237.447231 
L 161.977934 270.758111 
L 167.407247 304.068992 
L 172.836561 337.379872 
L 178.265875 354.035312 
L 183.695189 354.035312 
L 189.124503 354.035312 
L 194.553816 354.035312 
L 199.98313 354.035312 
L 205.412444 354.035312 
L 210.841758 354.035312 
L 216.271072 354.035312 
L 221.700385 354.035312 
L 227.129699 354.035312 
L 232.559013 354.035312 
L 237.988327 354.035312 
L 243.417641 354.035312 
L 248.846954 354.035312 
L 254.276268 354.035312 
L 259.705582 354.035312 
L 265.134896 354.035312 
L 270.56421 354.035312 
L 275.993523 354.035312 
L 281.422837 354.035312 
L 286.852151 354.035312 
L 292.281465 354.035312 
L 297.710779 354.035312 
L 303.140092 354.035312 
L 308.569406 354.035312 
L 313.99872 354.035312 
L 319.428034 354.035312 
L 324.857348 354.035312 
L 330.286661 354.035312 
L 335.715975 354.035312 
L 341.145289 354.035312 
L 346.574603 354.035312 
L 352.003917 354.035312 
L 357.43323 354.035312 
L 362.862544 354.035312 
L 368.291858 354.035312 
L 373.721172 354.035312 
L 379.150486 354.035312 
L 384.579799 354.035312 
L 390.009113 354.035312 
L 395.438427 354.035312 
L 400.867741 354.035312 
L 406.297055 354.035312 
L 411.726368 354.035312 
L 417.155682 354.035312 
L 422.584996 354.035312 
L 428.01431 354.035312 
L 433.443624 354.035312 
L 438.872937 354.035312 
L 444.302251 354.035312 
L 449.731565 354.035312 
L 455.160879 354.035312 
L 460.590193 354.035312 
L 466.019507 354.035312 
L 471.44882 354.035312 
L 476.878134 354.035312 
L 482.307448 354.035312 
L 487.736762 354.035312 
L 493.166076 354.035312 
L 498.595389 354.035312 
L 504.024703 354.035312 
L 509.454017 354.035312 
L 514.883331 354.035312 
L 520.312645 354.035312 
L 525.741958 354.035312 
L 531.171272 354.035312 
L 536.600586 354.035312 
L 542.0299 354.035312 
L 547.459214 354.035312 
L 552.888527 354.035312 
L 558.317841 354.035312 
L 563.747155 354.035312 
L 569.176469 354.035312 
L 574.605783 354.035312 
L 580.035096 354.035312 
L 585.46441 354.035312 
L 590.893724 354.035312 
L 596.323038 354.035312 
L 601.752352 354.035312 
L 607.181665 354.035312 
L 612.610979 354.035312 
L 618.040293 354.035312 
L 623.469607 354.035312 
L 628.898921 354.035312 
L 634.328234 354.035312 
L 639.757548 354.035312 
L 645.186862 354.035312 
L 650.616176 354.035312 
L 656.04549 354.035312 
L 661.474803 354.035312 
L 666.904117 354.035312 
L 672.333431 354.035312 
L 677.762745 354.035312 
L 683.192059 354.035312 
L 688.621372 354.035312 
L 694.050686 354.035312 
L 699.48 354.035312 
" clip-path="url(#p5d87160852)" style="fill: none; stroke: #e6194b; stroke-width: 2.2; stroke-linecap: square"/>
   </g>
   <g id="line2d_28">
    <path d="M 47.962344 354.035312 
L 53.391658 354.035312 
L 58.820971 354.035312 
L 64.250285 354.035312 
L 69.679599 354.035312 
L 75.108913 354.035312 
L 80.538227 354.035312 
L 85.96754 354.035312 
L 91.396854 354.035312 
L 96.826168 354.035312 
L 102.255482 354.035312 
L 107.684796 354.035312 
L 113.114109 354.035312 
L 118.543423 354.035312 
L 123.972737 354.035312 
L 129.402051 354.035312 
L 134.831365 354.035312 
L 140.260678 354.035312 
L 145.689992 354.035312 
L 151.119306 354.035312 
L 156.54862 354.035312 
L 161.977934 354.035312 
L 167.407247 47.575212 
L 172.836561 47.575212 
L 178.265875 47.575212 
L 183.695189 47.575212 
L 189.124503 47.575212 
L 194.553816 47.575212 
L 199.98313 47.575212 
L 205.412444 47.575212 
L 210.841758 47.575212 
L 216.271072 83.629342 
L 221.700385 119.683471 
L 227.129699 155.7376 
L 232.559013 191.79173 
L 237.988327 227.845859 
L 243.417641 263.899989 
L 248.846954 299.954118 
L 254.276268 336.008248 
L 259.705582 354.035312 
L 265.134896 354.035312 
L 270.56421 354.035312 
L 275.993523 354.035312 
L 281.422837 354.035312 
L 286.852151 354.035312 
L 292.281465 354.035312 
L 297.710779 354.035312 
L 303.140092 354.035312 
L 308.569406 354.035312 
L 313.99872 354.035312 
L 319.428034 354.035312 
L 324.857348 354.035312 
L 330.286661 354.035312 
L 335.715975 354.035312 
L 341.145289 354.035312 
L 346.574603 354.035312 
L 352.003917 354.035312 
L 357.43323 354.035312 
L 362.862544 354.035312 
L 368.291858 354.035312 
L 373.721172 354.035312 
L 379.150486 354.035312 
L 384.579799 354.035312 
L 390.009113 354.035312 
L 395.438427 354.035312 
L 400.867741 354.035312 
L 406.297055 354.035312 
L 411.726368 354.035312 
L 417.155682 354.035312 
L 422.584996 354.035312 
L 428.01431 354.035312 
L 433.443624 354.035312 
L 438.872937 354.035312 
L 444.302251 354.035312 
L 449.731565 354.035312 
L 455.160879 354.035312 
L 460.590193 354.035312 
L 466.019507 354.035312 
L 471.44882 354.035312 
L 476.878134 354.035312 
L 482.307448 354.035312 
L 487.736762 354.035312 
L 493.166076 354.035312 
L 498.595389 354.035312 
L 504.024703 354.035312 
L 509.454017 354.035312 
L 514.883331 354.035312 
L 520.312645 354.035312 
L 525.741958 354.035312 
L 531.171272 354.035312 
L 536.600586 354.035312 
L 542.0299 354.035312 
L 547.459214 354.035312 
L 552.888527 354.035312 
L 558.317841 354.035312 
L 563.747155 354.035312 
L 569.176469 354.035312 
L 574.605783 354.035312 
L 580.035096 354.035312 
L 585.46441 354.035312 
L 590.893724 354.035312 
L 596.323038 354.035312 
L 601.752352 354.035312 
L 607.181665 354.035312 
L 612.610979 354.035312 
L 618.040293 354.035312 
L 623.469607 354.035312 
L 628.898921 354.035312 
L 634.328234 354.035312 
L 639.757548 354.035312 
L 645.186862 354.035312 
L 650.616176 354.035312 
L 656.04549 354.035312 
L 661.474803 354.035312 
L 666.904117 354.035312 
L 672.333431 354.035312 
L 677.762745 354.035312 
L 683.192059 354.035312 
L 688.621372 354.035312 
L 694.050686 354.035312 
L 699.48 354.035312 
" clip-path="url(#p5d87160852)" style="fill: none; stroke: #3cb44b; stroke-width: 2.2; stroke-linecap: square"/>
   </g>
   <g id="line2d_29">
    <path d="M 47.962344 354.035312 
L 53.391658 354.035312 
L 58.820971 354.035312 
L 64.250285 354.035312 
L 69.679599 354.035312 
L 75.108913 354.035312 
L 80.538227 354.035312 
L 85.96754 354.035312 
L 91.396854 354.035312 
L 96.826168 354.035312 
L 102.255482 354.035312 
L 107.684796 354.035312 
L 113.114109 354.035312 
L 118.543423 354.035312 
L 123.972737 354.035312 
L 129.402051 354.035312 
L 134.831365 354.035312 
L 140.260678 354.035312 
L 145.689992 354.035312 
L 151.119306 354.035312 
L 156.54862 354.035312 
L 161.977934 354.035312 
L 167.407247 354.035312 
L 172.836561 354.035312 
L 178.265875 354.035312 
L 183.695189 354.035312 
L 189.124503 354.035312 
L 194.553816 354.035312 
L 199.98313 354.035312 
L 205.412444 354.035312 
L 210.841758 354.035312 
L 216.271072 354.035312 
L 221.700385 354.035312 
L 227.129699 354.035312 
L 232.559013 354.035312 
L 237.988327 354.035312 
L 243.417641 354.035312 
L 248.846954 47.575212 
L 254.276268 47.575212 
L 259.705582 47.575212 
L 265.134896 47.575212 
L 270.56421 47.575212 
L 275.993523 47.575212 
L 281.422837 47.575212 
L 286.852151 47.575212 
L 292.281465 47.575212 
L 297.710779 47.575212 
L 303.140092 47.575212 
L 308.569406 53.047714 
L 313.99872 107.772732 
L 319.428034 162.49775 
L 324.857348 217.222768 
L 330.286661 271.947786 
L 335.715975 326.672804 
L 341.145289 354.035312 
L 346.574603 354.035312 
L 352.003917 354.035312 
L 357.43323 354.035312 
L 362.862544 354.035312 
L 368.291858 354.035312 
L 373.721172 354.035312 
L 379.150486 354.035312 
L 384.579799 354.035312 
L 390.009113 354.035312 
L 395.438427 354.035312 
L 400.867741 354.035312 
L 406.297055 354.035312 
L 411.726368 354.035312 
L 417.155682 354.035312 
L 422.584996 354.035312 
L 428.01431 354.035312 
L 433.443624 354.035312 
L 438.872937 354.035312 
L 444.302251 354.035312 
L 449.731565 354.035312 
L 455.160879 354.035312 
L 460.590193 354.035312 
L 466.019507 354.035312 
L 471.44882 354.035312 
L 476.878134 354.035312 
L 482.307448 354.035312 
L 487.736762 354.035312 
L 493.166076 354.035312 
L 498.595389 354.035312 
L 504.024703 354.035312 
L 509.454017 354.035312 
L 514.883331 354.035312 
L 520.312645 354.035312 
L 525.741958 354.035312 
L 531.171272 354.035312 
L 536.600586 354.035312 
L 542.0299 354.035312 
L 547.459214 354.035312 
L 552.888527 354.035312 
L 558.317841 354.035312 
L 563.747155 354.035312 
L 569.176469 354.035312 
L 574.605783 354.035312 
L 580.035096 354.035312 
L 585.46441 354.035312 
L 590.893724 354.035312 
L 596.323038 354.035312 
L 601.752352 354.035312 
L 607.181665 354.035312 
L 612.610979 354.035312 
L 618.040293 354.035312 
L 623.469607 354.035312 
L 628.898921 354.035312 
L 634.328234 354.035312 
L 639.757548 354.035312 
L 645.186862 354.035312 
L 650.616176 354.035312 
L 656.04549 354.035312 
L 661.474803 354.035312 
L 666.904117 354.035312 
L 672.333431 354.035312 
L 677.762745 354.035312 
L 683.192059 354.035312 
L 688.621372 354.035312 
L 694.050686 354.035312 
L 699.48 354.035312 
" clip-path="url(#p5d87160852)" style="fill: none; stroke: #ffe119; stroke-width: 2.2; stroke-linecap: square"/>
   </g>
   <g id="line2d_30">
    <path d="M 47.962344 354.035312 
L 53.391658 354.035312 
L 58.820971 354.035312 
L 64.250285 354.035312 
L 69.679599 354.035312 
L 75.108913 354.035312 
L 80.538227 354.035312 
L 85.96754 354.035312 
L 91.396854 354.035312 
L 96.826168 354.035312 
L 102.255482 354.035312 
L 107.684796 354.035312 
L 113.114109 354.035312 
L 118.543423 354.035312 
L 123.972737 354.035312 
L 129.402051 354.035312 
L 134.831365 354.035312 
L 140.260678 354.035312 
L 145.689992 354.035312 
L 151.119306 354.035312 
L 156.54862 354.035312 
L 161.977934 354.035312 
L 167.407247 354.035312 
L 172.836561 354.035312 
L 178.265875 354.035312 
L 183.695189 354.035312 
L 189.124503 354.035312 
L 194.553816 354.035312 
L 199.98313 354.035312 
L 205.412444 354.035312 
L 210.841758 354.035312 
L 216.271072 354.035312 
L 221.700385 354.035312 
L 227.129699 354.035312 
L 232.559013 354.035312 
L 237.988327 354.035312 
L 243.417641 354.035312 
L 248.846954 354.035312 
L 254.276268 354.035312 
L 259.705582 354.035312 
L 265.134896 354.035312 
L 270.56421 354.035312 
L 275.993523 354.035312 
L 281.422837 354.035312 
L 286.852151 354.035312 
L 292.281465 354.035312 
L 297.710779 354.035312 
L 303.140092 354.035312 
L 308.569406 354.035312 
L 313.99872 354.035312 
L 319.428034 354.035312 
L 324.857348 354.035312 
L 330.286661 47.575212 
L 335.715975 47.575212 
L 341.145289 47.575212 
L 346.574603 47.575212 
L 352.003917 47.575212 
L 357.43323 47.575212 
L 362.862544 47.575212 
L 368.291858 47.575212 
L 373.721172 47.575212 
L 379.150486 47.575212 
L 384.579799 47.575212 
L 390.009113 82.175546 
L 395.438427 131.604594 
L 400.867741 181.033643 
L 406.297055 230.462691 
L 411.726368 279.89174 
L 417.155682 329.320788 
L 422.584996 354.035312 
L 428.01431 354.035312 
L 433.443624 354.035312 
L 438.872937 354.035312 
L 444.302251 354.035312 
L 449.731565 354.035312 
L 455.160879 354.035312 
L 460.590193 354.035312 
L 466.019507 354.035312 
L 471.44882 354.035312 
L 476.878134 354.035312 
L 482.307448 354.035312 
L 487.736762 354.035312 
L 493.166076 354.035312 
L 498.595389 354.035312 
L 504.024703 354.035312 
L 509.454017 354.035312 
L 514.883331 354.035312 
L 520.312645 354.035312 
L 525.741958 354.035312 
L 531.171272 354.035312 
L 536.600586 354.035312 
L 542.0299 354.035312 
L 547.459214 354.035312 
L 552.888527 354.035312 
L 558.317841 354.035312 
L 563.747155 354.035312 
L 569.176469 354.035312 
L 574.605783 354.035312 
L 580.035096 354.035312 
L 585.46441 354.035312 
L 590.893724 354.035312 
L 596.323038 354.035312 
L 601.752352 354.035312 
L 607.181665 354.035312 
L 612.610979 354.035312 
L 618.040293 354.035312 
L 623.469607 354.035312 
L 628.898921 354.035312 
L 634.328234 354.035312 
L 639.757548 354.035312 
L 645.186862 354.035312 
L 650.616176 354.035312 
L 656.04549 354.035312 
L 661.474803 354.035312 
L 666.904117 354.035312 
L 672.333431 354.035312 
L 677.762745 354.035312 
L 683.192059 354.035312 
L 688.621372 354.035312 
L 694.050686 354.035312 
L 699.48 354.035312 
" clip-path="url(#p5d87160852)" style="fill: none; stroke: #4363d8; stroke-width: 2.2; stroke-linecap: square"/>
   </g>
   <g id="line2d_31">
    <path d="M 47.962344 354.035312 
L 53.391658 354.035312 
L 58.820971 354.035312 
L 64.250285 354.035312 
L 69.679599 354.035312 
L 75.108913 354.035312 
L 80.538227 354.035312 
L 85.96754 354.035312 
L 91.396854 354.035312 
L 96.826168 354.035312 
L 102.255482 354.035312 
L 107.684796 354.035312 
L 113.114109 354.035312 
L 118.543423 354.035312 
L 123.972737 354.035312 
L 129.402051 354.035312 
L 134.831365 354.035312 
L 140.260678 354.035312 
L 145.689992 354.035312 
L 151.119306 354.035312 
L 156.54862 354.035312 
L 161.977934 354.035312 
L 167.407247 354.035312 
L 172.836561 354.035312 
L 178.265875 354.035312 
L 183.695189 354.035312 
L 189.124503 354.035312 
L 194.553816 354.035312 
L 199.98313 354.035312 
L 205.412444 354.035312 
L 210.841758 354.035312 
L 216.271072 354.035312 
L 221.700385 354.035312 
L 227.129699 354.035312 
L 232.559013 354.035312 
L 237.988327 354.035312 
L 243.417641 354.035312 
L 248.846954 354.035312 
L 254.276268 354.035312 
L 259.705582 354.035312 
L 265.134896 354.035312 
L 270.56421 354.035312 
L 275.993523 354.035312 
L 281.422837 354.035312 
L 286.852151 354.035312 
L 292.281465 354.035312 
L 297.710779 354.035312 
L 303.140092 354.035312 
L 308.569406 354.035312 
L 313.99872 354.035312 
L 319.428034 354.035312 
L 324.857348 354.035312 
L 330.286661 354.035312 
L 335.715975 354.035312 
L 341.145289 354.035312 
L 346.574603 354.035312 
L 352.003917 354.035312 
L 357.43323 354.035312 
L 362.862544 354.035312 
L 368.291858 354.035312 
L 373.721172 354.035312 
L 379.150486 354.035312 
L 384.579799 354.035312 
L 390.009113 354.035312 
L 395.438427 354.035312 
L 400.867741 354.035312 
L 406.297055 354.035312 
L 411.726368 47.575212 
L 417.155682 47.575212 
L 422.584996 47.575212 
L 428.01431 47.575212 
L 433.443624 47.575212 
L 438.872937 47.575212 
L 444.302251 47.575212 
L 449.731565 47.575212 
L 455.160879 47.575212 
L 460.590193 47.575212 
L 466.019507 47.575212 
L 471.44882 90.671164 
L 476.878134 138.555554 
L 482.307448 186.439945 
L 487.736762 234.324336 
L 493.166076 282.208726 
L 498.595389 330.093117 
L 504.024703 354.035312 
L 509.454017 354.035312 
L 514.883331 354.035312 
L 520.312645 354.035312 
L 525.741958 354.035312 
L 531.171272 354.035312 
L 536.600586 354.035312 
L 542.0299 354.035312 
L 547.459214 354.035312 
L 552.888527 354.035312 
L 558.317841 354.035312 
L 563.747155 354.035312 
L 569.176469 354.035312 
L 574.605783 354.035312 
L 580.035096 354.035312 
L 585.46441 354.035312 
L 590.893724 354.035312 
L 596.323038 354.035312 
L 601.752352 354.035312 
L 607.181665 354.035312 
L 612.610979 354.035312 
L 618.040293 354.035312 
L 623.469607 354.035312 
L 628.898921 354.035312 
L 634.328234 354.035312 
L 639.757548 354.035312 
L 645.186862 354.035312 
L 650.616176 354.035312 
L 656.04549 354.035312 
L 661.474803 354.035312 
L 666.904117 354.035312 
L 672.333431 354.035312 
L 677.762745 354.035312 
L 683.192059 354.035312 
L 688.621372 354.035312 
L 694.050686 354.035312 
L 699.48 354.035312 
" clip-path="url(#p5d87160852)" style="fill: none; stroke: #f58231; stroke-width: 2.2; stroke-linecap: square"/>
   </g>
   <g id="line2d_32">
    <path d="M 47.962344 354.035312 
L 53.391658 354.035312 
L 58.820971 354.035312 
L 64.250285 354.035312 
L 69.679599 354.035312 
L 75.108913 354.035312 
L 80.538227 354.035312 
L 85.96754 354.035312 
L 91.396854 354.035312 
L 96.826168 354.035312 
L 102.255482 354.035312 
L 107.684796 354.035312 
L 113.114109 354.035312 
L 118.543423 354.035312 
L 123.972737 354.035312 
L 129.402051 354.035312 
L 134.831365 354.035312 
L 140.260678 354.035312 
L 145.689992 354.035312 
L 151.119306 354.035312 
L 156.54862 354.035312 
L 161.977934 354.035312 
L 167.407247 354.035312 
L 172.836561 354.035312 
L 178.265875 354.035312 
L 183.695189 354.035312 
L 189.124503 354.035312 
L 194.553816 354.035312 
L 199.98313 354.035312 
L 205.412444 354.035312 
L 210.841758 354.035312 
L 216.271072 354.035312 
L 221.700385 354.035312 
L 227.129699 354.035312 
L 232.559013 354.035312 
L 237.988327 354.035312 
L 243.417641 354.035312 
L 248.846954 354.035312 
L 254.276268 354.035312 
L 259.705582 354.035312 
L 265.134896 354.035312 
L 270.56421 354.035312 
L 275.993523 354.035312 
L 281.422837 354.035312 
L 286.852151 354.035312 
L 292.281465 354.035312 
L 297.710779 354.035312 
L 303.140092 354.035312 
L 308.569406 354.035312 
L 313.99872 354.035312 
L 319.428034 354.035312 
L 324.857348 354.035312 
L 330.286661 354.035312 
L 335.715975 354.035312 
L 341.145289 354.035312 
L 346.574603 354.035312 
L 352.003917 354.035312 
L 357.43323 354.035312 
L 362.862544 354.035312 
L 368.291858 354.035312 
L 373.721172 354.035312 
L 379.150486 354.035312 
L 384.579799 354.035312 
L 390.009113 354.035312 
L 395.438427 354.035312 
L 400.867741 354.035312 
L 406.297055 354.035312 
L 411.726368 354.035312 
L 417.155682 354.035312 
L 422.584996 354.035312 
L 428.01431 354.035312 
L 433.443624 354.035312 
L 438.872937 354.035312 
L 444.302251 354.035312 
L 449.731565 354.035312 
L 455.160879 354.035312 
L 460.590193 354.035312 
L 466.019507 354.035312 
L 471.44882 354.035312 
L 476.878134 354.035312 
L 482.307448 354.035312 
L 487.736762 354.035312 
L 493.166076 47.575212 
L 498.595389 47.575212 
L 504.024703 47.575212 
L 509.454017 47.575212 
L 514.883331 47.575212 
L 520.312645 47.575212 
L 525.741958 47.575212 
L 531.171272 47.575212 
L 536.600586 47.575212 
L 542.0299 73.473249 
L 547.459214 116.636643 
L 552.888527 159.800038 
L 558.317841 202.963432 
L 563.747155 246.126826 
L 569.176469 289.290221 
L 574.605783 332.453615 
L 580.035096 354.035312 
L 585.46441 354.035312 
L 590.893724 354.035312 
L 596.323038 354.035312 
L 601.752352 354.035312 
L 607.181665 354.035312 
L 612.610979 354.035312 
L 618.040293 354.035312 
L 623.469607 354.035312 
L 628.898921 354.035312 
L 634.328234 354.035312 
L 639.757548 354.035312 
L 645.186862 354.035312 
L 650.616176 354.035312 
L 656.04549 354.035312 
L 661.474803 354.035312 
L 666.904117 354.035312 
L 672.333431 354.035312 
L 677.762745 354.035312 
L 683.192059 354.035312 
L 688.621372 354.035312 
L 694.050686 354.035312 
L 699.48 354.035312 
" clip-path="url(#p5d87160852)" style="fill: none; stroke: #911eb4; stroke-width: 2.2; stroke-linecap: square"/>
   </g>
   <g id="line2d_33">
    <path d="M 47.962344 354.035312 
L 53.391658 354.035312 
L 58.820971 354.035312 
L 64.250285 354.035312 
L 69.679599 354.035312 
L 75.108913 354.035312 
L 80.538227 354.035312 
L 85.96754 354.035312 
L 91.396854 354.035312 
L 96.826168 354.035312 
L 102.255482 354.035312 
L 107.684796 354.035312 
L 113.114109 354.035312 
L 118.543423 354.035312 
L 123.972737 354.035312 
L 129.402051 354.035312 
L 134.831365 354.035312 
L 140.260678 354.035312 
L 145.689992 354.035312 
L 151.119306 354.035312 
L 156.54862 354.035312 
L 161.977934 354.035312 
L 167.407247 354.035312 
L 172.836561 354.035312 
L 178.265875 354.035312 
L 183.695189 354.035312 
L 189.124503 354.035312 
L 194.553816 354.035312 
L 199.98313 354.035312 
L 205.412444 354.035312 
L 210.841758 354.035312 
L 216.271072 354.035312 
L 221.700385 354.035312 
L 227.129699 354.035312 
L 232.559013 354.035312 
L 237.988327 354.035312 
L 243.417641 354.035312 
L 248.846954 354.035312 
L 254.276268 354.035312 
L 259.705582 354.035312 
L 265.134896 354.035312 
L 270.56421 354.035312 
L 275.993523 354.035312 
L 281.422837 354.035312 
L 286.852151 354.035312 
L 292.281465 354.035312 
L 297.710779 354.035312 
L 303.140092 354.035312 
L 308.569406 354.035312 
L 313.99872 354.035312 
L 319.428034 354.035312 
L 324.857348 354.035312 
L 330.286661 354.035312 
L 335.715975 354.035312 
L 341.145289 354.035312 
L 346.574603 354.035312 
L 352.003917 354.035312 
L 357.43323 354.035312 
L 362.862544 354.035312 
L 368.291858 354.035312 
L 373.721172 354.035312 
L 379.150486 354.035312 
L 384.579799 354.035312 
L 390.009113 354.035312 
L 395.438427 354.035312 
L 400.867741 354.035312 
L 406.297055 354.035312 
L 411.726368 354.035312 
L 417.155682 354.035312 
L 422.584996 354.035312 
L 428.01431 354.035312 
L 433.443624 354.035312 
L 438.872937 354.035312 
L 444.302251 354.035312 
L 449.731565 354.035312 
L 455.160879 354.035312 
L 460.590193 354.035312 
L 466.019507 354.035312 
L 471.44882 354.035312 
L 476.878134 354.035312 
L 482.307448 354.035312 
L 487.736762 354.035312 
L 493.166076 354.035312 
L 498.595389 354.035312 
L 504.024703 354.035312 
L 509.454017 354.035312 
L 514.883331 354.035312 
L 520.312645 354.035312 
L 525.741958 354.035312 
L 531.171272 354.035312 
L 536.600586 354.035312 
L 542.0299 354.035312 
L 547.459214 354.035312 
L 552.888527 354.035312 
L 558.317841 354.035312 
L 563.747155 354.035312 
L 569.176469 47.575212 
L 574.605783 47.575212 
L 580.035096 47.575212 
L 585.46441 47.575212 
L 590.893724 47.575212 
L 596.323038 47.575212 
L 601.752352 47.575212 
L 607.181665 47.575212 
L 612.610979 47.575212 
L 618.040293 47.575212 
L 623.469607 47.575212 
L 628.898921 47.575212 
L 634.328234 47.575212 
L 639.757548 47.575212 
L 645.186862 47.575212 
L 650.616176 47.575212 
L 656.04549 47.575212 
L 661.474803 47.575212 
L 666.904117 47.575212 
L 672.333431 47.575212 
L 677.762745 108.867232 
L 683.192059 170.159252 
L 688.621372 231.451272 
L 694.050686 292.743292 
L 699.48 354.035312 
" clip-path="url(#p5d87160852)" style="fill: none; stroke: #42d4f4; stroke-width: 2.2; stroke-linecap: square"/>
   </g>
   <g id="line2d_34">
    <path d="M 156.54862 354.035312 
L 156.54862 10.8 
" clip-path="url(#p5d87160852)" style="fill: none; stroke-dasharray: 1,1.65; stroke-dashoffset: 0; stroke: #999999"/>
   </g>
   <g id="line2d_35">
    <path d="M 237.988327 354.035312 
L 237.988327 10.8 
" clip-path="url(#p5d87160852)" style="fill: none; stroke-dasharray: 1,1.65; stroke-dashoffset: 0; stroke: #999999"/>
   </g>
   <g id="line2d_36">
    <path d="M 319.428034 354.035312 
L 319.428034 10.8 
" clip-path="url(#p5d87160852)" style="fill: none; stroke-dasharray: 1,1.65; stroke-dashoffset: 0; stroke: #999999"/>
   </g>
   <g id="line2d_37">
    <path d="M 400.867741 354.035312 
L 400.867741 10.8 
" clip-path="url(#p5d87160852)" style="fill: none; stroke-dasharray: 1,1.65; stroke-dashoffset: 0; stroke: #999999"/>
   </g>
   <g id="line2d_38">
    <path d="M 482.307448 354.035312 
L 482.307448 10.8 
" clip-path="url(#p5d87160852)" style="fill: none; stroke-dasharray: 1,1.65; stroke-dashoffset: 0; stroke: #999999"/>
   </g>
   <g id="line2d_39">
    <path d="M 563.747155 354.035312 
L 563.747155 10.8 
" clip-path="url(#p5d87160852)" style="fill: none; stroke-dasharray: 1,1.65; stroke-dashoffset: 0; stroke: #999999"/>
   </g>
   <g id="patch_3">
    <path d="M 47.962344 354.035312 
L 47.962344 10.8 
" style="fill: none; stroke: #000000; stroke-width: 0.8; stroke-linejoin: miter; stroke-linecap: square"/>
   </g>
   <g id="patch_4">
    <path d="M 699.48 354.035312 
L 699.48 10.8 
" style="fill: none; stroke: #000000; stroke-width: 0.8; stroke-linejoin: miter; stroke-linecap: square"/>
   </g>
   <g id="patch_5">
    <path d="M 47.962344 354.035312 
L 699.48 354.035312 
" style="fill: none; stroke: #000000; stroke-width: 0.8; stroke-linejoin: miter; stroke-linecap: square"/>
   </g>
   <g id="patch_6">
    <path d="M 47.962344 10.8 
L 699.48 10.8 
" style="fill: none; stroke: #000000; stroke-width: 0.8; stroke-linejoin: miter; stroke-linecap: square"/>
   </g>
   <g id="text_16">
    <!-- 20 -->
    <g style="fill: #666666" transform="translate(151.45862 39.524135) scale(0.08 -0.08)">
     <use xlink:href="#DejaVuSans-15"/>
     <use xlink:href="#DejaVuSans-13" transform="translate(63.625 0)"/>
    </g>
   </g>
   <g id="text_17">
    <!-- 35 -->
    <g style="fill: #666666" transform="translate(232.898327 39.524135) scale(0.08 -0.08)">
     <defs>
      <path id="DejaVuSans-16" d="M 2597 2516 
Q 3050 2419 3304 2112 
Q 3559 1806 3559 1356 
Q 3559 666 3084 287 
Q 2609 -91 1734 -91 
Q 1441 -91 1130 -33 
Q 819 25 488 141 
L 488 750 
Q 750 597 1062 519 
Q 1375 441 1716 441 
Q 2309 441 2620 675 
Q 2931 909 2931 1356 
Q 2931 1769 2642 2001 
Q 2353 2234 1838 2234 
L 1294 2234 
L 1294 2753 
L 1863 2753 
Q 2328 2753 2575 2939 
Q 2822 3125 2822 3475 
Q 2822 3834 2567 4026 
Q 2313 4219 1838 4219 
Q 1578 4219 1281 4162 
Q 984 4106 628 3988 
L 628 4550 
Q 988 4650 1302 4700 
Q 1616 4750 1894 4750 
Q 2613 4750 3031 4423 
Q 3450 4097 3450 3541 
Q 3450 3153 3228 2886 
Q 3006 2619 2597 2516 
z
" transform="scale(0.015625)"/>
      <path id="DejaVuSans-18" d="M 691 4666 
L 3169 4666 
L 3169 4134 
L 1269 4134 
L 1269 2991 
Q 1406 3038 1543 3061 
Q 1681 3084 1819 3084 
Q 2600 3084 3056 2656 
Q 3513 2228 3513 1497 
Q 3513 744 3044 326 
Q 2575 -91 1722 -91 
Q 1428 -91 1123 -41 
Q 819 9 494 109 
L 494 744 
Q 775 591 1075 516 
Q 1375 441 1709 441 
Q 2250 441 2565 725 
Q 2881 1009 2881 1497 
Q 2881 1984 2565 2268 
Q 2250 2553 1709 2553 
Q 1456 2553 1204 2497 
Q 953 2441 691 2322 
L 691 4666 
z
" transform="scale(0.015625)"/>
     </defs>
     <use xlink:href="#DejaVuSans-16"/>
     <use xlink:href="#DejaVuSans-18" transform="translate(63.625 0)"/>
    </g>
   </g>
   <g id="text_18">
    <!-- 50 -->
    <g style="fill: #666666" transform="translate(314.338034 39.524135) scale(0.08 -0.08)">
     <use xlink:href="#DejaVuSans-18"/>
     <use xlink:href="#DejaVuSans-13" transform="translate(63.625 0)"/>
    </g>
   </g>
   <g id="text_19">
    <!-- 65 -->
    <g style="fill: #666666" transform="translate(395.777741 39.524135) scale(0.08 -0.08)">
     <use xlink:href="#DejaVuSans-19"/>
     <use xlink:href="#DejaVuSans-18" transform="translate(63.625 0)"/>
    </g>
   </g>
   <g id="text_20">
    <!-- 80 -->
    <g style="fill: #666666" transform="translate(477.217448 39.524135) scale(0.08 -0.08)">
     <use xlink:href="#DejaVuSans-1b"/>
     <use xlink:href="#DejaVuSans-13" transform="translate(63.625 0)"/>
    </g>
   </g>
   <g id="text_21">
    <!-- 95 -->
    <g style="fill: #666666" transform="translate(558.657155 39.524135) scale(0.08 -0.08)">
     <defs>
      <path id="DejaVuSans-1c" d="M 703 97 
L 703 672 
Q 941 559 1184 500 
Q 1428 441 1663 441 
Q 2288 441 2617 861 
Q 2947 1281 2994 2138 
Q 2813 1869 2534 1725 
Q 2256 1581 1919 1581 
Q 1219 1581 811 2004 
Q 403 2428 403 3163 
Q 403 3881 828 4315 
Q 1253 4750 1959 4750 
Q 2769 4750 3195 4129 
Q 3622 3509 3622 2328 
Q 3622 1225 3098 567 
Q 2575 -91 1691 -91 
Q 1453 -91 1209 -44 
Q 966 3 703 97 
z
M 1959 2075 
Q 2384 2075 2632 2365 
Q 2881 2656 2881 3163 
Q 2881 3666 2632 3958 
Q 2384 4250 1959 4250 
Q 1534 4250 1286 3958 
Q 1038 3666 1038 3163 
Q 1038 2656 1286 2365 
Q 1534 2075 1959 2075 
z
" transform="scale(0.015625)"/>
     </defs>
     <use xlink:href="#DejaVuSans-1c"/>
     <use xlink:href="#DejaVuSans-18" transform="translate(63.625 0)"/>
    </g>
   </g>
   <g id="legend_1">
    <g id="patch_7">
     <path d="M 53.562344 101.204375 
L 203.202344 101.204375 
Q 204.802344 101.204375 204.802344 99.604375 
L 204.802344 16.4 
Q 204.802344 14.8 203.202344 14.8 
L 53.562344 14.8 
Q 51.962344 14.8 51.962344 16.4 
L 51.962344 99.604375 
Q 51.962344 101.204375 53.562344 101.204375 
z
" style="fill: #ffffff; opacity: 0.9; stroke: #cccccc; stroke-linejoin: miter"/>
    </g>
    <g id="line2d_40">
     <path d="M 55.162344 21.27875 
L 63.162344 21.27875 
L 71.162344 21.27875 
" style="fill: none; stroke: #e6194b; stroke-width: 2.2; stroke-linecap: square"/>
    </g>
    <g id="text_22">
     <!-- Normal  [0–24 dB] -->
     <g transform="translate(77.562344 24.07875) scale(0.08 -0.08)">
      <defs>
       <path id="DejaVuSans-31" d="M 628 4666 
L 1478 4666 
L 3547 763 
L 3547 4666 
L 4159 4666 
L 4159 0 
L 3309 0 
L 1241 3903 
L 1241 0 
L 628 0 
L 628 4666 
z
" transform="scale(0.015625)"/>
       <path id="DejaVuSans-3e" d="M 550 4863 
L 1875 4863 
L 1875 4416 
L 1125 4416 
L 1125 -397 
L 1875 -397 
L 1875 -844 
L 550 -844 
L 550 4863 
z
" transform="scale(0.015625)"/>
       <path id="DejaVuSans-af5" d="M 313 1978 
L 2888 1978 
L 2888 1528 
L 313 1528 
L 313 1978 
z
" transform="scale(0.015625)"/>
       <path id="DejaVuSans-40" d="M 1947 4863 
L 1947 -844 
L 622 -844 
L 622 -397 
L 1369 -397 
L 1369 4416 
L 622 4416 
L 622 4863 
L 1947 4863 
z
" transform="scale(0.015625)"/>
      </defs>
      <use xlink:href="#DejaVuSans-31"/>
      <use xlink:href="#DejaVuSans-52" transform="translate(74.8125 0)"/>
      <use xlink:href="#DejaVuSans-55" transform="translate(136 0)"/>
      <use xlink:href="#DejaVuSans-50" transform="translate(175.359375 0)"/>
      <use xlink:href="#DejaVuSans-44" transform="translate(272.765625 0)"/>
      <use xlink:href="#DejaVuSans-4f" transform="translate(334.046875 0)"/>
      <use xlink:href="#DejaVuSans-3" transform="translate(361.828125 0)"/>
      <use xlink:href="#DejaVuSans-3" transform="translate(393.609375 0)"/>
      <use xlink:href="#DejaVuSans-3e" transform="translate(425.390625 0)"/>
      <use xlink:href="#DejaVuSans-13" transform="translate(464.40625 0)"/>
      <use xlink:href="#DejaVuSans-af5" transform="translate(528.03125 0)"/>
      <use xlink:href="#DejaVuSans-15" transform="translate(578.03125 0)"/>
      <use xlink:href="#DejaVuSans-17" transform="translate(641.65625 0)"/>
      <use xlink:href="#DejaVuSans-3" transform="translate(705.28125 0)"/>
      <use xlink:href="#DejaVuSans-47" transform="translate(737.0625 0)"/>
      <use xlink:href="#DejaVuSans-25" transform="translate(800.546875 0)"/>
      <use xlink:href="#DejaVuSans-40" transform="translate(869.15625 0)"/>
     </g>
    </g>
    <g id="line2d_41">
     <path d="M 55.162344 33.279375 
L 63.162344 33.279375 
L 71.162344 33.279375 
" style="fill: none; stroke: #3cb44b; stroke-width: 2.2; stroke-linecap: square"/>
    </g>
    <g id="text_23">
     <!-- Mild  [22–38 dB] -->
     <g transform="translate(77.562344 36.079375) scale(0.08 -0.08)">
      <use xlink:href="#DejaVuSans-30"/>
      <use xlink:href="#DejaVuSans-4c" transform="translate(86.28125 0)"/>
      <use xlink:href="#DejaVuSans-4f" transform="translate(114.0625 0)"/>
      <use xlink:href="#DejaVuSans-47" transform="translate(141.84375 0)"/>
      <use xlink:href="#DejaVuSans-3" transform="translate(205.328125 0)"/>
      <use xlink:href="#DejaVuSans-3" transform="translate(237.109375 0)"/>
      <use xlink:href="#DejaVuSans-3e" transform="translate(268.890625 0)"/>
      <use xlink:href="#DejaVuSans-15" transform="translate(307.90625 0)"/>
      <use xlink:href="#DejaVuSans-15" transform="translate(371.53125 0)"/>
      <use xlink:href="#DejaVuSans-af5" transform="translate(435.15625 0)"/>
      <use xlink:href="#DejaVuSans-16" transform="translate(485.15625 0)"/>
      <use xlink:href="#DejaVuSans-1b" transform="translate(548.78125 0)"/>
      <use xlink:href="#DejaVuSans-3" transform="translate(612.40625 0)"/>
      <use xlink:href="#DejaVuSans-47" transform="translate(644.1875 0)"/>
      <use xlink:href="#DejaVuSans-25" transform="translate(707.671875 0)"/>
      <use xlink:href="#DejaVuSans-40" transform="translate(776.28125 0)"/>
     </g>
    </g>
    <g id="line2d_42">
     <path d="M 55.162344 45.28 
L 63.162344 45.28 
L 71.162344 45.28 
" style="fill: none; stroke: #ffe119; stroke-width: 2.2; stroke-linecap: square"/>
    </g>
    <g id="text_24">
     <!-- Moderate  [36–54 dB] -->
     <g transform="translate(77.562344 48.08) scale(0.08 -0.08)">
      <use xlink:href="#DejaVuSans-30"/>
      <use xlink:href="#DejaVuSans-52" transform="translate(86.28125 0)"/>
      <use xlink:href="#DejaVuSans-47" transform="translate(147.46875 0)"/>
      <use xlink:href="#DejaVuSans-48" transform="translate(210.953125 0)"/>
      <use xlink:href="#DejaVuSans-55" transform="translate(272.484375 0)"/>
      <use xlink:href="#DejaVuSans-44" transform="translate(313.59375 0)"/>
      <use xlink:href="#DejaVuSans-57" transform="translate(374.875 0)"/>
      <use xlink:href="#DejaVuSans-48" transform="translate(414.078125 0)"/>
      <use xlink:href="#DejaVuSans-3" transform="translate(475.609375 0)"/>
      <use xlink:href="#DejaVuSans-3" transform="translate(507.390625 0)"/>
      <use xlink:href="#DejaVuSans-3e" transform="translate(539.171875 0)"/>
      <use xlink:href="#DejaVuSans-16" transform="translate(578.1875 0)"/>
      <use xlink:href="#DejaVuSans-19" transform="translate(641.8125 0)"/>
      <use xlink:href="#DejaVuSans-af5" transform="translate(705.4375 0)"/>
      <use xlink:href="#DejaVuSans-18" transform="translate(755.4375 0)"/>
      <use xlink:href="#DejaVuSans-17" transform="translate(819.0625 0)"/>
      <use xlink:href="#DejaVuSans-3" transform="translate(882.6875 0)"/>
      <use xlink:href="#DejaVuSans-47" transform="translate(914.46875 0)"/>
      <use xlink:href="#DejaVuSans-25" transform="translate(977.953125 0)"/>
      <use xlink:href="#DejaVuSans-40" transform="translate(1046.5625 0)"/>
     </g>
    </g>
    <g id="line2d_43">
     <path d="M 55.162344 57.280625 
L 63.162344 57.280625 
L 71.162344 57.280625 
" style="fill: none; stroke: #4363d8; stroke-width: 2.2; stroke-linecap: square"/>
    </g>
    <g id="text_25">
     <!-- Moderately Severe  [52–68 dB] -->
     <g transform="translate(77.562344 60.080625) scale(0.08 -0.08)">
      <defs>
       <path id="DejaVuSans-5c" d="M 2059 -325 
Q 1816 -950 1584 -1140 
Q 1353 -1331 966 -1331 
L 506 -1331 
L 506 -850 
L 844 -850 
Q 1081 -850 1212 -737 
Q 1344 -625 1503 -206 
L 1606 56 
L 191 3500 
L 800 3500 
L 1894 763 
L 2988 3500 
L 3597 3500 
L 2059 -325 
z
" transform="scale(0.015625)"/>
       <path id="DejaVuSans-36" d="M 3425 4513 
L 3425 3897 
Q 3066 4069 2747 4153 
Q 2428 4238 2131 4238 
Q 1616 4238 1336 4038 
Q 1056 3838 1056 3469 
Q 1056 3159 1242 3001 
Q 1428 2844 1947 2747 
L 2328 2669 
Q 3034 2534 3370 2195 
Q 3706 1856 3706 1288 
Q 3706 609 3251 259 
Q 2797 -91 1919 -91 
Q 1588 -91 1214 -16 
Q 841 59 441 206 
L 441 856 
Q 825 641 1194 531 
Q 1563 422 1919 422 
Q 2459 422 2753 634 
Q 3047 847 3047 1241 
Q 3047 1584 2836 1778 
Q 2625 1972 2144 2069 
L 1759 2144 
Q 1053 2284 737 2584 
Q 422 2884 422 3419 
Q 422 4038 858 4394 
Q 1294 4750 2059 4750 
Q 2388 4750 2728 4690 
Q 3069 4631 3425 4513 
z
" transform="scale(0.015625)"/>
       <path id="DejaVuSans-59" d="M 191 3500 
L 800 3500 
L 1894 563 
L 2988 3500 
L 3597 3500 
L 2284 0 
L 1503 0 
L 191 3500 
z
" transform="scale(0.015625)"/>
      </defs>
      <use xlink:href="#DejaVuSans-30"/>
      <use xlink:href="#DejaVuSans-52" transform="translate(86.28125 0)"/>
      <use xlink:href="#DejaVuSans-47" transform="translate(147.46875 0)"/>
      <use xlink:href="#DejaVuSans-48" transform="translate(210.953125 0)"/>
      <use xlink:href="#DejaVuSans-55" transform="translate(272.484375 0)"/>
      <use xlink:href="#DejaVuSans-44" transform="translate(313.59375 0)"/>
      <use xlink:href="#DejaVuSans-57" transform="translate(374.875 0)"/>
      <use xlink:href="#DejaVuSans-48" transform="translate(414.078125 0)"/>
      <use xlink:href="#DejaVuSans-4f" transform="translate(475.609375 0)"/>
      <use xlink:href="#DejaVuSans-5c" transform="translate(503.390625 0)"/>
      <use xlink:href="#DejaVuSans-3" transform="translate(562.578125 0)"/>
      <use xlink:href="#DejaVuSans-36" transform="translate(594.359375 0)"/>
      <use xlink:href="#DejaVuSans-48" transform="translate(657.84375 0)"/>
      <use xlink:href="#DejaVuSans-59" transform="translate(719.375 0)"/>
      <use xlink:href="#DejaVuSans-48" transform="translate(778.5625 0)"/>
      <use xlink:href="#DejaVuSans-55" transform="translate(840.09375 0)"/>
      <use xlink:href="#DejaVuSans-48" transform="translate(879 0)"/>
      <use xlink:href="#DejaVuSans-3" transform="translate(940.53125 0)"/>
      <use xlink:href="#DejaVuSans-3" transform="translate(972.3125 0)"/>
      <use xlink:href="#DejaVuSans-3e" transform="translate(1004.09375 0)"/>
      <use xlink:href="#DejaVuSans-18" transform="translate(1043.109375 0)"/>
      <use xlink:href="#DejaVuSans-15" transform="translate(1106.734375 0)"/>
      <use xlink:href="#DejaVuSans-af5" transform="translate(1170.359375 0)"/>
      <use xlink:href="#DejaVuSans-19" transform="translate(1220.359375 0)"/>
      <use xlink:href="#DejaVuSans-1b" transform="translate(1283.984375 0)"/>
      <use xlink:href="#DejaVuSans-3" transform="translate(1347.609375 0)"/>
      <use xlink:href="#DejaVuSans-47" transform="translate(1379.390625 0)"/>
      <use xlink:href="#DejaVuSans-25" transform="translate(1442.875 0)"/>
      <use xlink:href="#DejaVuSans-40" transform="translate(1511.484375 0)"/>
     </g>
    </g>
    <g id="line2d_44">
     <path d="M 55.162344 69.28125 
L 63.162344 69.28125 
L 71.162344 69.28125 
" style="fill: none; stroke: #f58231; stroke-width: 2.2; stroke-linecap: square"/>
    </g>
    <g id="text_26">
     <!-- Severe  [66–84 dB] -->
     <g transform="translate(77.562344 72.08125) scale(0.08 -0.08)">
      <use xlink:href="#DejaVuSans-36"/>
      <use xlink:href="#DejaVuSans-48" transform="translate(63.484375 0)"/>
      <use xlink:href="#DejaVuSans-59" transform="translate(125.015625 0)"/>
      <use xlink:href="#DejaVuSans-48" transform="translate(184.203125 0)"/>
      <use xlink:href="#DejaVuSans-55" transform="translate(245.734375 0)"/>
      <use xlink:href="#DejaVuSans-48" transform="translate(284.640625 0)"/>
      <use xlink:href="#DejaVuSans-3" transform="translate(346.171875 0)"/>
      <use xlink:href="#DejaVuSans-3" transform="translate(377.953125 0)"/>
      <use xlink:href="#DejaVuSans-3e" transform="translate(409.734375 0)"/>
      <use xlink:href="#DejaVuSans-19" transform="translate(448.75 0)"/>
      <use xlink:href="#DejaVuSans-19" transform="translate(512.375 0)"/>
      <use xlink:href="#DejaVuSans-af5" transform="translate(576 0)"/>
      <use xlink:href="#DejaVuSans-1b" transform="translate(626 0)"/>
      <use xlink:href="#DejaVuSans-17" transform="translate(689.625 0)"/>
      <use xlink:href="#DejaVuSans-3" transform="translate(753.25 0)"/>
      <use xlink:href="#DejaVuSans-47" transform="translate(785.03125 0)"/>
      <use xlink:href="#DejaVuSans-25" transform="translate(848.515625 0)"/>
      <use xlink:href="#DejaVuSans-40" transform="translate(917.125 0)"/>
     </g>
    </g>
    <g id="line2d_45">
     <path d="M 55.162344 81.281875 
L 63.162344 81.281875 
L 71.162344 81.281875 
" style="fill: none; stroke: #911eb4; stroke-width: 2.2; stroke-linecap: square"/>
    </g>
    <g id="text_27">
     <!-- Profound  [82–98 dB] -->
     <g transform="translate(77.562344 84.081875) scale(0.08 -0.08)">
      <defs>
       <path id="DejaVuSans-33" d="M 1259 4147 
L 1259 2394 
L 2053 2394 
Q 2494 2394 2734 2622 
Q 2975 2850 2975 3272 
Q 2975 3691 2734 3919 
Q 2494 4147 2053 4147 
L 1259 4147 
z
M 628 4666 
L 2053 4666 
Q 2838 4666 3239 4311 
Q 3641 3956 3641 3272 
Q 3641 2581 3239 2228 
Q 2838 1875 2053 1875 
L 1259 1875 
L 1259 0 
L 628 0 
L 628 4666 
z
" transform="scale(0.015625)"/>
       <path id="DejaVuSans-49" d="M 2375 4863 
L 2375 4384 
L 1825 4384 
Q 1516 4384 1395 4259 
Q 1275 4134 1275 3809 
L 1275 3500 
L 2222 3500 
L 2222 3053 
L 1275 3053 
L 1275 0 
L 697 0 
L 697 3053 
L 147 3053 
L 147 3500 
L 697 3500 
L 697 3744 
Q 697 4328 969 4595 
Q 1241 4863 1831 4863 
L 2375 4863 
z
" transform="scale(0.015625)"/>
       <path id="DejaVuSans-58" d="M 544 1381 
L 544 3500 
L 1119 3500 
L 1119 1403 
Q 1119 906 1312 657 
Q 1506 409 1894 409 
Q 2359 409 2629 706 
Q 2900 1003 2900 1516 
L 2900 3500 
L 3475 3500 
L 3475 0 
L 2900 0 
L 2900 538 
Q 2691 219 2414 64 
Q 2138 -91 1772 -91 
Q 1169 -91 856 284 
Q 544 659 544 1381 
z
M 1991 3584 
L 1991 3584 
z
" transform="scale(0.015625)"/>
      </defs>
      <use xlink:href="#DejaVuSans-33"/>
      <use xlink:href="#DejaVuSans-55" transform="translate(58.546875 0)"/>
      <use xlink:href="#DejaVuSans-52" transform="translate(97.453125 0)"/>
      <use xlink:href="#DejaVuSans-49" transform="translate(158.640625 0)"/>
      <use xlink:href="#DejaVuSans-52" transform="translate(193.84375 0)"/>
      <use xlink:href="#DejaVuSans-58" transform="translate(255.03125 0)"/>
      <use xlink:href="#DejaVuSans-51" transform="translate(318.40625 0)"/>
      <use xlink:href="#DejaVuSans-47" transform="translate(381.78125 0)"/>
      <use xlink:href="#DejaVuSans-3" transform="translate(445.265625 0)"/>
      <use xlink:href="#DejaVuSans-3" transform="translate(477.046875 0)"/>
      <use xlink:href="#DejaVuSans-3e" transform="translate(508.828125 0)"/>
      <use xlink:href="#DejaVuSans-1b" transform="translate(547.84375 0)"/>
      <use xlink:href="#DejaVuSans-15" transform="translate(611.46875 0)"/>
      <use xlink:href="#DejaVuSans-af5" transform="translate(675.09375 0)"/>
      <use xlink:href="#DejaVuSans-1c" transform="translate(725.09375 0)"/>
      <use xlink:href="#DejaVuSans-1b" transform="translate(788.71875 0)"/>
      <use xlink:href="#DejaVuSans-3" transform="translate(852.34375 0)"/>
      <use xlink:href="#DejaVuSans-47" transform="translate(884.125 0)"/>
      <use xlink:href="#DejaVuSans-25" transform="translate(947.609375 0)"/>
      <use xlink:href="#DejaVuSans-40" transform="translate(1016.21875 0)"/>
     </g>
    </g>
    <g id="line2d_46">
     <path d="M 55.162344 93.2825 
L 63.162344 93.2825 
L 71.162344 93.2825 
" style="fill: none; stroke: #42d4f4; stroke-width: 2.2; stroke-linecap: square"/>
    </g>
    <g id="text_28">
     <!-- Complete  [96–120 dB] -->
     <g transform="translate(77.562344 96.0825) scale(0.08 -0.08)">
      <defs>
       <path id="DejaVuSans-26" d="M 4122 4306 
L 4122 3641 
Q 3803 3938 3442 4084 
Q 3081 4231 2675 4231 
Q 1875 4231 1450 3742 
Q 1025 3253 1025 2328 
Q 1025 1406 1450 917 
Q 1875 428 2675 428 
Q 3081 428 3442 575 
Q 3803 722 4122 1019 
L 4122 359 
Q 3791 134 3420 21 
Q 3050 -91 2638 -91 
Q 1578 -91 968 557 
Q 359 1206 359 2328 
Q 359 3453 968 4101 
Q 1578 4750 2638 4750 
Q 3056 4750 3426 4639 
Q 3797 4528 4122 4306 
z
" transform="scale(0.015625)"/>
      </defs>
      <use xlink:href="#DejaVuSans-26"/>
      <use xlink:href="#DejaVuSans-52" transform="translate(69.828125 0)"/>
      <use xlink:href="#DejaVuSans-50" transform="translate(131.015625 0)"/>
      <use xlink:href="#DejaVuSans-53" transform="translate(228.421875 0)"/>
      <use xlink:href="#DejaVuSans-4f" transform="translate(291.90625 0)"/>
      <use xlink:href="#DejaVuSans-48" transform="translate(319.6875 0)"/>
      <use xlink:href="#DejaVuSans-57" transform="translate(381.21875 0)"/>
      <use xlink:href="#DejaVuSans-48" transform="translate(420.421875 0)"/>
      <use xlink:href="#DejaVuSans-3" transform="translate(481.953125 0)"/>
      <use xlink:href="#DejaVuSans-3" transform="translate(513.734375 0)"/>
      <use xlink:href="#DejaVuSans-3e" transform="translate(545.515625 0)"/>
      <use xlink:href="#DejaVuSans-1c" transform="translate(584.53125 0)"/>
      <use xlink:href="#DejaVuSans-19" transform="translate(648.15625 0)"/>
      <use xlink:href="#DejaVuSans-af5" transform="translate(711.78125 0)"/>
      <use xlink:href="#DejaVuSans-14" transform="translate(761.78125 0)"/>
      <use xlink:href="#DejaVuSans-15" transform="translate(825.40625 0)"/>
      <use xlink:href="#DejaVuSans-13" transform="translate(889.03125 0)"/>
      <use xlink:href="#DejaVuSans-3" transform="translate(952.65625 0)"/>
      <use xlink:href="#DejaVuSans-47" transform="translate(984.4375 0)"/>
      <use xlink:href="#DejaVuSans-25" transform="translate(1047.921875 0)"/>
      <use xlink:href="#DejaVuSans-40" transform="translate(1116.53125 0)"/>
     </g>
    </g>
   </g>
  </g>
 </g>
 <defs>
  <clipPath id="p5d87160852">
   <rect x="47.962344" y="10.8" width="651.517656" height="343.235312"/>
  </clipPath>
 </defs>
</svg>
